<svg width="256" height="256" viewBox="0 0 256 256" xmlns="http://www.w3.org/2000/svg">
  <defs>
    <filter id="shadow" x="-20%" y="-20%" width="140%" height="140%">
      <feDropShadow dx="0" dy="8" stdDeviation="8" flood-opacity="0.25"/>
    </filter>
  </defs>
  <circle cx="128" cy="124" r="110" fill="#1E88E5" filter="url(#shadow)"/>
  <circle cx="128" cy="124" r="92" fill="white" opacity="0.13"/>
  <path d="M128 62 C150 94 168 116 168 142 C168 171 149 190 128 190 C107 190 88 171 88 142 C88 116 106 94 128 62Z" fill="#FDD835"/>
  <rect x="54" y="82" width="148" height="94" rx="24" fill="#0F1D35" opacity="0.94"/>
  <text x="128" y="146" text-anchor="middle" font-family="Arial, Helvetica, sans-serif" font-size="46" font-weight="700" fill="white">AL</text>
  <rect x="174" y="54" width="32" height="46" rx="8" fill="white" opacity="0.95"/>
  <rect x="183" y="98" width="13" height="30" fill="white" opacity="0.95"/>
  <path d="M194 75 C230 112 216 158 177 181" fill="none" stroke="white" stroke-width="8" stroke-linecap="round" opacity="0.9"/>
</svg>